<?xml version="1.0" encoding="UTF-8"?>
<svg id="_レイヤー_1" data-name="レイヤー 1" xmlns="http://www.w3.org/2000/svg" width="270" height="60" version="1.1" viewBox="0 0 270 60">
  <defs>
    <style>
      .cls-1 {
        fill: #333;
      }

      .cls-1, .cls-2, .cls-3, .cls-4 {
        stroke-width: 0px;
      }

      .cls-2 {
        fill: #231815;
      }

      .cls-3 {
        fill: #000;
      }

      .cls-4 {
        fill: #f15a24;
      }
    </style>
  </defs>
  <path class="cls-4" d="M49.9,37c0-6.7-5.7-12.3-14.1-14.7-.4-.1-.6-.7-.3-1,1.2-1.4,2-2.9,2.6-4.6,1-3,.7-6.1-.7-8.7-2.1-3.9-6.6-6.3-11.8-6.3s-5.4.6-7.9,1.8c-.9.4-1.8.9-2.6,1.5-.1,0-.3.2-.4.3,0,0,0,0,0,0,0,0,0,0,0,0,0,0,0,0,0,0-.4.3-.8.6-1.2,1-3.1,3.1-3.8,7.3-1.5,9.4,2.3,2.1,6.7,1.3,9.9-1.7,1.5-1.5,2.4-3.2,2.7-4.8.1-.6.6-1,1.1-1,2.8,0,5.1,1.1,6.1,2.9.7,1.3.5,2.7.2,3.6-.7,2.2-2.7,4.2-5.3,5.4-1.2.5-2.4.9-3.6,1.1-11.5,1.1-20.1,7.7-20.1,15.9,0,4.2,2.3,8,6,10.8,1.1.9,2.5,1.6,4.1,1.9,4.1.9,7.9-.8,8.5-3.7.6-2.9-2.2-6-6.3-6.8-1.5-.3-3-.3-4.3,0-.5.1-1.2,0-1.3-.6-.2-.5-.2-1-.2-1.6,0-3.1,2.8-5.3,4.4-6.3,3.3-2.1,7.9-3.3,12.6-3.3,4.7,0,9.3,1.2,12.6,3.3,1.7,1.1,4.4,3.3,4.4,6.3,0,.6,0,1.1-.2,1.6-.2.5-.8.7-1.3.6-1.3-.3-2.8-.4-4.3,0-4.1.9-6.9,3.9-6.3,6.8.6,2.9,4.4,4.6,8.5,3.7,1.6-.3,3-1,4-1.8,3.8-2.8,6.1-6.6,6.1-10.9"/>
  <polygon class="cls-2" points="12.9 52.9 14.5 52.9 13.2 55.2 14.7 58.2 13 58.2 12.2 56.4 12 56.8 12 58.2 10.5 58.2 10.5 52.9 12 52.9 12 54.9 12 54.9 12.9 52.9"/>
  <polygon class="cls-2" points="18.7 52.9 20.3 52.9 19 56.1 19 58.2 17.5 58.2 17.5 56.1 16.1 52.9 17.8 52.9 18.2 54.7 18.2 54.7 18.7 52.9"/>
  <path class="cls-2" d="M24.4,52.9h1.5v3.5c0,1.3-.5,1.9-1.8,1.9-1.5,0-1.8-.6-1.8-1.9v-3.5h1.5v3.8c0,.5,0,.6.3.6s.3-.2.3-.6v-3.8Z"/>
  <rect class="cls-2" x="28.5" y="52.9" width="1.5" height="5.3"/>
  <polygon class="cls-2" points="35 52.9 36.6 52.9 35.3 55.2 36.7 58.2 35.1 58.2 34.3 56.4 34.1 56.8 34.1 58.2 32.6 58.2 32.6 52.9 34.1 52.9 34.1 54.9 34.1 54.9 35 52.9"/>
  <path class="cls-2" d="M41,52.9h1.5v3.5c0,1.3-.5,1.9-1.8,1.9s-1.8-.6-1.8-1.9v-3.5h1.5v3.8c0,.5,0,.6.3.6s.3-.2.3-.6v-3.8Z"/>
  <g>
    <path class="cls-1" d="M58.7,29.2c1.4.2,3.3.2,4,.2h11.6c.8-.1,2.7-.4,3.5-.6l1.2,1.7c-.3.2-.4.4-.7.9-1.6,2.6-3.3,5-6.6,7.1l-.7-.8c3.7-2.8,5.3-7,5.3-7.1s0-.2-.3-.2h-13.4c-.2.1-2.2.2-4,.4v-1.7ZM67.2,33.6h2c.2.1.4.2.4.4s0,.1,0,.2c-.2.3-.3.4-.3.5v.8c0,7.7-3.3,11.2-9.5,12.1l-.2-1.1c1.2-.2,3.4-.4,5.3-2.4,1.7-1.9,2.5-4.5,2.5-7.3v-3Z"/>
    <path class="cls-1" d="M81.1,47.3c2.7-.2,7.9-.5,11.9-5.7,2.7-3.5,3.4-7.5,3.7-9.4h-9.5c-1.9,3.2-3.6,4.8-6.9,6.6l-.6-1c1.5-.7,5.1-2.3,7-9.2.1-.3.3-1.1.4-1.6l1.9.6c0,0,.5.1.5.3s-.1.2-.2.3c-.3.1-.3.2-.4.5-.3.8-.5,1.4-1,2.4h5.8c1,0,3.1-.1,4.3-.3l1.2,1.3c0,.1,0,.2-.1.3-.3.7-1.2,4-1.5,4.8-3.6,10.2-11.6,11-16.4,11.4v-1.2Z"/>
    <path class="cls-1" d="M104.5,29.9c0-.2,0-1.3-.2-2.4h2.1c.3,0,.5.1.5.3s0,.1-.1.3c-.3.3-.4.5-.4.9v16.6c10.4-1.9,12.7-8.3,13.5-10.6l1,.5c-1.2,3.2-3.3,8.2-11,11.1-.6.2-3.7,1.1-4.3,1.5l-1.4-1.2c.1-.6.3-2,.3-2.4v-14.6Z"/>
    <path class="cls-1" d="M124.3,37.3c2,0,4.1,0,6.1,0h9.5c.4,0,3.2,0,6.1,0v1.4c-2,0-4.2,0-6.1,0h-9.5c0,0-3.5,0-6.1,0v-1.4Z"/>
    <path class="cls-1" d="M152.5,30.3c0-.9,0-1.9-.2-2.8l2,.2c.3,0,.4.1.4.3s0,.1-.1.3c-.2.3-.3.5-.3.8v5.9c1.6.5,6.6,1.9,10,4.8l-1.7,1.5c-2.8-3.1-6-4.4-8.3-5.2v6.9c0,1,0,3.3,0,5.2h-2.2c.2-2.5.2-4.6.2-5.2v-12.7ZM163,33.4c-.8-1.1-1.9-2.3-2.7-3l.8-.7c.4.3,1.9,1.5,3,2.7l-1.2,1ZM165.2,31.9c-.7-1-1.5-1.9-2.5-2.7l.8-.7c1,.7,2.1,1.5,2.9,2.4l-1.2,1Z"/>
    <path class="cls-1" d="M177.2,41.1c-1.1-1.2-1.7-2.2-2.6-3.8v12.4h-1.9v-12c-.9,2.4-1.9,4-3.7,6l-.9-.5c.9-1.2,3.7-4.8,4.5-10.2h-3.7v-.9h3.9v-4.4c0-.4-.2-1.1-.3-1.5h2.2c.2,0,.4,0,.4.3s0,.2-.4.7v4.9h2.9v.9h-2.8c.6,3.6,2.6,6.3,3.4,7.4l-.9.6ZM176.6,47.6c4.4-3.5,5.9-6.8,6.6-8.8h-5.3v-.9h6.4v-5.3h-3.9c-.9,1.5-1.6,2.2-2.2,2.9l-1-.6c2.6-3.3,3.1-6.1,3.2-7l2.2.7c.3.1.4.2.4.3s0,.2-.7.6c-.7,1.2-1,1.8-1.3,2.2h3.2v-3.6c0-.5-.2-1.1-.3-1.8h2c.3.1.4.1.4.3s-.1.4-.2.6v4.5h4.9v.9h-4.9v5.3h5.9v.9h-5c.8,2.7,2.1,4.9,5.6,8.1l-.8.6c-2.7-2-4.4-4.1-5.6-7v9.1h-1.9v-9.1c-2.4,4.5-5.3,6.7-6.9,7.7l-.7-.7Z"/>
    <path class="cls-1" d="M201.1,46.1c2-.6,4.3-1.3,6.1-1.8l-.2,1.1c-3.2,1.3-9.5,3.3-11.3,3.9-.3.5-.4.6-.6.6s-.3-.2-.4-.3l-.9-1.7c1.4-.1,1.6-.2,5.2-1.1v-8.4h-4.1v-.9h10.4v.9h-4.2v7.9ZM208.3,26.4c.3,0,.5,0,.5.2s-.3.6-.3.7c0,.4,0,1,0,1.8s0,1.2,0,2.7h9.1v.9h-9.1c.7,11.2,4.6,14.8,5.8,14.8s1,0,2.1-3.9c.9.9,1.2,1,1.8,1.3-.8,2.3-1.8,4.9-3.8,4.9s-7.1-4.9-7.9-17.1h-12.1v-.9h12.1c0-.6-.1-3.9-.1-4.1s0-.8-.2-1.4h2.1ZM214.1,31.3c-.7-1.5-1.7-3.2-2.6-4.1l.6-.7c1.8,1.2,2.9,2.2,3.8,3.3l-1.8,1.5Z"/>
    <path class="cls-1" d="M231.7,26.4c1.8,3.7,5.5,7.1,10.8,9l-.7,1c-5.1-1.8-8.2-4-11.5-8.2-3.5,4.8-8.2,7.1-11.2,8.2l-.8-.9c4.5-1.9,9.1-5.4,10.8-9.1h2.6ZM233.8,41.9c2.1,1.7,4.6,4.3,6.5,6.5l-1.9,1.5c-.7-1.3-1.1-1.8-1.5-2.4-6.8.8-7.6.9-14,1.5-.2,0-.5,0-.7.1-.2.1-.9.6-1,.6s-.2-.2-.2-.3l-.5-1.8c.4,0,1.2.1,1.7.1s.8,0,1.3,0c1.1-1.6,3.2-5.3,4-7h-8v-.9h22.2v.9h-11.5c-1.4,2.3-3.5,5.2-5,6.9,5.3-.4,5.9-.4,11.2-.9-1.2-1.8-2.7-3.3-3.3-4l.7-.8ZM236.7,34.6v.9h-12.3v-.9h12.3Z"/>
    <path class="cls-1" d="M254.5,41.4c-1-.5-2.4-1.3-4-2.8v11h-1.9v-10.3c-1.9,1.9-3.6,2.9-4.4,3.5l-.9-.7c3.5-2.2,6.2-5.5,7.7-9.2h-7.2v-.9h4.8v-4.3c0-.6,0-.8-.2-1.4h1.9c.3,0,.4,0,.4.3s-.1.4-.2.5v4.9h3.2c-.5,1.2-1.1,2.8-2.7,4.8.2.3,1.5,2.3,4,3.9l-.5.7ZM266.3,34.5v.9h-5.2v12.3h5.8v.9h-14.6v-.9h6.7v-12.3h-4.9v-.9h4.9v-6.6c0-.7-.2-1.2-.4-1.6h2.2c.4,0,.5.1.5.3s-.1.3-.3.5v7.4h5.2Z"/>
  </g>
  <g>
    <path class="cls-3" d="M62.2,11.2c0,0-.2,0-.3,0-.3.1-.5.2-1,.3,0,.6,0,1.5,0,2.1h.2l.3-.4c0,0,.1-.1.2-.1s.1,0,.2.1l.5.4c0,0,.1.1.1.2s0,.1-.2.1h-1.4c0,.2,0,.2,0,.8.8.3,1.5.8,1.5,1.4s-.2.5-.4.5-.4-.2-.6-.8c-.3-.8-.4-.9-.5-1,0,1.5,0,3.8,0,5.2s0,1,0,1.1c0,.3-.4.4-.6.4-.3,0-.3-.2-.3-.4s.2-3.3.2-3.4c0-.3,0-1.5,0-1.8-.6,1.1-1.6,2.3-2.3,2.8h0c1-1.5,2-3.8,2.3-4.7h-.2c-.2,0-.9,0-1.4.1l-.2-.5c.7,0,1.5,0,2,0v-1.9c-1,.2-1.6.2-2,.2h0c.6-.2,2.7-1.1,3.2-1.4,0,0,.2-.2.2-.3l.8.8c0,0,.1.1.1.2,0,.1-.1.2-.3.2ZM69.2,20.8h-6.2c-.3,0-.9,0-1.4.1l-.2-.5c.8,0,1.5,0,1.9,0h1.8v-1.3h-1c-.3,0-.9,0-1.4.1l-.2-.5c.8,0,1.7,0,1.9,0h.8v-1.3h-1.3c0,.1,0,.5-.5.5s-.3,0-.3-.3,0-.6,0-.7c0-.5,0-.9,0-1.4,0-1.6,0-1.9-.1-2.3l1,.5h1.2v-1.2h-1.2c-.3,0-.9,0-1.4.1l-.2-.5c.8,0,1.7,0,1.9,0h1.1v-1.1c-.4,0-1.7.2-2.4.1h0c.6-.2,2.1-.5,3.2-1,.5-.2.6-.3.8-.5l.8.7c0,0,.1.1.1.2s0,.1-.2.1-.2,0-.4,0c-.3,0-.4.1-1.2.3v1.2h1.8l.4-.5c0,0,.1-.1.2-.1s.1,0,.2.1l.5.5c0,0,.1.1.1.2s0,.1-.2.1h-3.1v1.2h1.2l.3-.3c0,0,.1-.1.2-.1s.1,0,.2.1l.5.4c0,0,.1.1.1.2s-.2.3-.4.4c0,.4,0,2.3,0,2.7s-.4.5-.6.5c-.3,0-.3-.2-.3-.3h-1.3v1.3h1.1l.4-.5c0,0,.1-.1.2-.1s.1,0,.2.1l.5.4c0,0,.1.1.1.2s0,.1-.2.1h-2.4v1.3h1.9l.4-.5c0-.1.1-.1.2-.1s.1,0,.2.1l.7.5c0,0,.1.1.1.2s-.1.1-.2.1ZM65.1,14.3h-1.3v1.3h1.3v-1.3ZM65.1,15.9h-1.3v1.4h1.3v-1.4ZM67.1,14.3h-1.3v1.3h1.3v-1.3ZM67.1,15.9h-1.3v1.4h1.3v-1.4Z"/>
    <path class="cls-3" d="M77.5,20.3c-.3.1-1.7.2-2.4.2s-2.4,0-3.3-.6c-.5-.3-.8-.9-.8-1.4,0-.8.5-1.9,2.3-3.1-.1-.2-.5-.7-.5-1.4,0-1.9,0-2.1-.1-2.4,0-.3-.3-.5-.5-.6-.3-.2-.4-.2-.5-.3.1,0,.4-.2.7-.2.5,0,1.4.5,1.4.9s0,.2,0,.3c0,.3-.3.7-.3,1.7s0,1.2.3,1.7c.7-.4,1.5-.7,2.2-1,.2,0,.4-.2.4-.3s0-.2,0-.4c.2,0,.6.1.8.4.2.2.3.5.3.7,0,.3,0,.3-.8.5-1.7.3-5.3,1.8-5.3,3.5s1.8,1.3,2.6,1.3,1.4,0,2.6-.3c.2,0,.3,0,.5,0,.3,0,.8.1.8.5s-.3.4-.5.4Z"/>
    <path class="cls-3" d="M90.4,12.6c-.1,0-.3,0-.5,0-.3.1-1.4.7-1.7.8h0c.2-.3.6-.9.6-1.1h-7.1c0,.9-.3,2.1-1.2,2.1s-.5-.2-.5-.5.1-.4.7-.8c.6-.5.8-1.3.8-1.6h.1c0,.3,0,.4,0,.5h3.2c0-.8,0-.9-.3-1.6l1.3.3c.1,0,.2,0,.2.2s-.1.3-.4.4c0,.3,0,.5,0,.7h3l.5-.5c.1,0,.2-.1.3-.1s.2,0,.2.1l.8.7c0,0,0,.1,0,.2s-.1.2-.3.2ZM90.1,21.3c-.8-.1-1.7-.5-2.3-.9-1.1-.7-1.8-1.7-2.2-2.5h-.2c-.6,1.8-2.4,3.1-5,3.4h0c2.2-.8,3.6-2.1,4.2-3.4h-2.7c-.3,0-.9,0-1.4.1l-.2-.5c.8,0,1.7,0,1.9,0h2.6c0-.2.2-.6.3-1.4h-1.3c-.2,0-.8,0-1.4.1l-.2-.5c.8,0,1.5,0,1.9,0h1.2c0-.4,0-.9,0-1.4h-1.6c-.3,0-.9,0-1.4.1l-.2-.5c.8,0,1.7,0,1.9,0h1.4c0-1.3-.1-1.6-.2-1.8l1.3.3c0,0,.2,0,.2.2s-.2.2-.4.3c0,.1,0,.8,0,.9h1.8l.4-.5c0-.1.2-.2.2-.2s.1,0,.2.1l.6.5c0,0,.1.1.1.2,0,0,0,.1-.2.1h-3.1c0,1,0,1.1,0,1.4h1.6l.4-.5c0,0,.1-.1.2-.1s.1,0,.2.1l.5.5c0,0,.1.1.1.2s0,.1-.2.1h-2.9c0,.3,0,.7-.3,1.4h3.6l.5-.5c0,0,.1-.1.2-.1s.1,0,.2.1l.6.5c0,0,.1.1.1.2s0,.1-.2.1h-4.8c1.7,2,3.7,2.2,5.4,2.2h0c-.4.3-.8.4-1.1,1.2Z"/>
    <path class="cls-3" d="M96.7,20.4c-.4.4-1.2,1-1.7,1.1h0c2.1-1.6,2.7-3.9,2.7-6.1s0-3-1-3-.8.5-.9.7c-.5.7-1.3,2.6-1.3,4s0,.8,0,.9,0,.3-.3.3c-.7,0-.9-1.4-.9-2.5s.3-2.5.4-3.5c0,0,0-.3,0-.5,0-.7-.5-.9-.7-1.1.1,0,.3,0,.5,0,.6,0,1.1.5,1.1.9s0,.4-.1.5c-.4.9-.7,2.1-.7,3.3s0,.9.1.9,0,0,.1-.1c.3-1,1.3-4.1,2.8-4.1s1.7,2.4,1.7,3.6c0,2.2-.5,3.7-1.9,4.9Z"/>
    <path class="cls-3" d="M110,15.4c-1.2.2-2.3.7-3.4,1.1,0,.2.1.7.1,1.4s0,1.1-.4,1.1-.5-.7-.5-.9,0-1,0-1.2c-.8.5-1.7,1.4-1.7,2.1s1.6.9,2,.9c.7,0,1.4-.1,1.9-.2.2,0,.3,0,.4,0,.5,0,.7.3.7.5s-.2.4-.4.4c-.2,0-1.3.1-1.9.1s-3.2,0-3.2-1.5,1.5-2.3,2.2-2.7c-.1-.6-.3-1.3-1.1-1.3s-1.3.7-1.5,1.1c-.6.9-.6.9-.8.9s-.4-.2-.4-.5c0-.4.1-.5.3-.7.9-.7,1.5-1.7,2.1-2.7-.4,0-.7.1-1.1.1-.8,0-1.2-.5-1.2-1.1.4.4.7.5,1.3.5s1.2-.1,1.4-.1c.2-.3.7-1.2.7-1.4s-.3-.4-.8-.5c.1-.1.3-.3.7-.3s1.1.5,1.1.7-.1.3-.2.4c-.3.3-.3.4-.6.9.3,0,1.4-.6,1.7-.6s.6.2.6.4-.1.3-.3.3c-.6.2-1.9.5-2.6.6-1.1,1.6-1.2,1.8-1.4,2.1.3-.1.7-.3,1.2-.3,1.1,0,1.4.7,1.5,1.2.8-.5,2-1.1,2.4-1.2.2-.1.3-.2.3-.4s0-.2-.4-.4c0,0,.1,0,.3,0,.4,0,1.4.4,1.4,1s-.2.3-.4.4Z"/>
    <path class="cls-3" d="M123,14.5h-2.6c0,2,0,2.2,0,2.6,0,.2,0,.9,0,1.1s0,.6-.6.6-.3-.1-.3-.6h-1.8c0,.3,0,.9-.6.9s-.4-.3-.4-.4c0-.4,0-1,0-1.4,0-.5,0-.7,0-2.9h-1.8c0,2.8,0,3.1,0,5.6h5.5l.6-.7c0-.1.1-.2.2-.2s.1,0,.2.1l.8.7c0,0,.1.1.1.2,0,0-.1.1-.2.1h-7.3c0,.2,0,.8-.6.8s-.4,0-.4-.4,0-1,0-1.2c0-1.1,0-1.4,0-5.1h-.5c-.2,0-.8,0-1.4.1l-.2-.5c.8,0,1.5,0,1.9,0h.3c0-.7,0-1.9,0-2.8,0-.5,0-.6-.2-.9l1.3.4c0,0,.2,0,.2.2s-.3.3-.4.4v2.7h1.8c0-1.5,0-2.4,0-3.1,0-.4,0-.6-.1-.8l1.2.4c0,0,.2,0,.2.2s-.2.3-.4.4c0,1.4,0,1.5,0,2.9h1.8c0-1.6,0-2.1,0-2.6,0-.6,0-.8-.2-1l1.4.4c0,0,.2,0,.2.2,0,.1-.2.2-.4.4,0,.2,0,2.3,0,2.6h.9l.5-.7c0,0,.1-.2.2-.2s.1,0,.2.1l.9.7c0,0,.1.1.1.2,0,0,0,.1-.2.1ZM119.6,14.5h-1.8v3.4h1.8v-3.4Z"/>
    <path class="cls-3" d="M133.8,18.3c-1-.3-1.9-.8-2.7-1.5,0,0,0,0,0,0,0,0,0,.1-.3.3,0,.8,0,1.7,0,2.3,0,.2,0,1.4,0,1.6,0,.4-.4.6-.6.6-.4,0-.4-.3-.4-.4,0-.4,0-2.3,0-2.7,0-1.3,0-1.6-.2-2l.9.2c.1,0,.2,0,.3,0-.2-.2-1-.9-1.6-1.9h-.3c-.2.3-.6.9-1.4,1.6l.6.2c.1,0,.2,0,.2.2s0,.2-.4.3c-.1,2-.5,3.9-3.8,4.3h0c3-1.1,3-3.4,2.9-4.6-1.7,1.3-3.3,1.7-3.9,1.8h0c2.3-1,3.9-2.8,4.7-3.9h-1.9c0,.4,0,.8-.5.8s-.4-.2-.4-.4,0-1.1,0-1.2c0-.3,0-.8,0-1.4s0-1.5-.1-2.1l1,.5h5.7l.2-.3c0,0,.1-.1.2-.1s.1,0,.2.1l.5.4c0,0,.1.1.1.2s0,.2-.4.4c0,.4,0,1.3,0,1.8,0,.2,0,1.3,0,1.6,0,.5-.4.5-.6.5-.4,0-.4-.3-.3-.6h-2.4c.8,1,2.7,2.2,5.2,2.2h0c-.5.3-.9.8-1.1,1.2ZM128.7,11.2h-2.5v1.5h2.5v-1.5ZM128.7,13h-2.5v1.5h2.5v-1.5ZM132.1,11.2h-2.6v1.5h2.6v-1.5ZM132.1,13h-2.6v1.5h2.6v-1.5Z"/>
    <path class="cls-3" d="M140.4,20.1c-.2.3-.7.6-1.1.6s-.3-.1-.4-.5c0-.4-.5-1.1-.9-1.6h0c.3.1,1.2.8,1.5.8.9,0,1.4-3.2,1.4-4s-.3-1.3-.8-1.3-.6,0-.8.1c-.2.4-.9,2.2-1.1,2.4,0,.2-1.5,3-1.8,3.5-.1.2-.2.2-.4.2s-.4-.2-.4-.5,0-.5.5-1c.3-.4.9-1.4,1.6-2.8.3-.5.5-1.1.8-1.7-.5.1-1.1.4-1.7.7-.3.2-.4.2-.5.2-.4,0-1-.6-1-1.1s0-.3.1-.4c.3.5.6.6.8.6s.3,0,.7-.1c.2,0,1.2-.3,1.8-.5.2-.5.6-1.4.6-1.9s-.2-.6-.9-.9c.1,0,.4-.1.7-.1.5,0,1.2.5,1.2.9s0,.2-.3.7c0,.1-.4.8-.6,1.2.2,0,.4,0,.7,0,1.2,0,1.4,1,1.4,2s-.4,3.6-1.3,4.5ZM145.5,17.2c-.1,0-.6-.3-.7-.3-.5-.2-1.6-.4-1.7-.4h0c1.2-.2,1.5-.3,1.5-.7s-.4-1.1-2.3-2.4c2.3.4,3.4,2.1,3.4,3.3s0,.5-.3.5Z"/>
    <path class="cls-3" d="M150.2,20.7h0c1-.2,2-.6,2.9-1.1.9-.5,1.6-1.1,1.6-2.1s0-1.6-1.5-1.6-3,1-4,2.5c0,0-.1.2-.3.2-.5,0-.6-.7-.6-1s0-.3.2-.9c.1-.6.2-2,.2-2.6,0-1.1,0-1.7,2.1-2.1,0,0,.1,0,.1,0s0,0-.3-.3c-.3-.2-.8-.7-.8-1.2.5.4.6.5,1.8.9.3.1,1,.4,1,1.1s0,.4-.3.4-.3,0-.6-.2c-.2,0-.7-.2-1.3-.2-.9,0-1.3.3-1.3.6s0,.2.3.8c0,.2,0,.3,0,.4,0,.1-.1.6-.2.7,0,.3-.3,1.1-.3,1.7s0,.3.2.3.8-.5,1-.6c1.2-.7,2.4-1,3.2-1,1.7,0,2.4,1.2,2.4,2.1,0,2-2.5,3.2-5.4,3Z"/>
  </g>
</svg>